<svg width="30" height="30" viewBox="0 0 30 30" fill="none" xmlns="http://www.w3.org/2000/svg">
<path d="M29.0323 15.0625C29.0323 22.8309 22.5234 29.125 14.4927 29.125C7.83169 29.125 2.22425 24.7985 0.503382 18.8957L6.0757 21.1241C6.45031 22.9443 8.1185 24.3222 10.1086 24.3222C12.4031 24.3222 14.3171 22.485 14.2176 20.1545L19.1636 16.7409C22.2132 16.8146 24.7711 14.4217 24.7711 11.4391C24.7711 8.51323 22.3127 6.13735 19.2866 6.13735C16.2604 6.13735 13.802 8.5189 13.802 11.4391V11.5072L10.3369 16.3667C9.42963 16.3157 8.53993 16.5595 7.79071 17.0528L0 13.9341C0.597034 6.69305 6.85419 1 14.4927 1C22.5234 1 29.0323 7.2941 29.0323 15.0625ZM9.11355 22.3376L7.3283 21.6231C7.65636 22.283 8.22281 22.8035 8.9204 23.0861C10.4949 23.7211 12.3036 22.9953 12.9592 21.4757C13.2752 20.7385 13.2811 19.9277 12.965 19.1905C12.6489 18.4534 12.0578 17.875 11.2968 17.5688C10.5418 17.2626 9.734 17.2739 9.0199 17.5348L10.8637 18.2719C12.0226 18.7369 12.5728 20.0241 12.087 21.1468C11.6012 22.2752 10.2725 22.8025 9.11355 22.3376V22.3376ZM19.2866 14.9718C17.273 14.9718 15.6341 13.3841 15.6341 11.4391C15.6341 9.4942 17.273 7.9065 19.2866 7.9065C21.3001 7.9065 22.939 9.4942 22.939 11.4391C22.939 13.3841 21.3059 14.9718 19.2866 14.9718V14.9718ZM19.2924 14.0872C20.8084 14.0872 22.0376 12.8964 22.0376 11.4335C22.0376 9.96484 20.8084 8.77974 19.2924 8.77974C17.7764 8.77974 16.5472 9.97051 16.5472 11.4335C16.5531 12.8964 17.7823 14.0872 19.2924 14.0872Z" fill="white"/>
</svg>
